<?xml version="1.0" encoding="utf-8"?>
<!-- Generator: Adobe Illustrator 16.0.0, SVG Export Plug-In . SVG Version: 6.00 Build 0)  -->
<!DOCTYPE svg PUBLIC "-//W3C//DTD SVG 1.1//EN" "http://www.w3.org/Graphics/SVG/1.1/DTD/svg11.dtd">
<svg version="1.1" id="图形" xmlns="http://www.w3.org/2000/svg" xmlns:xlink="http://www.w3.org/1999/xlink" x="0px" y="0px"
	 width="1000.637px" height="1000.678px" viewBox="0 0 1000.637 1000.678" enable-background="new 0 0 1000.637 1000.678"
	 xml:space="preserve">
<g>
	<circle fill="#D9291D" cx="513.285" cy="482.697" r="439.37"/>
	<g>
		<polygon fill="#EACE30" points="348.565,387.679 310.552,270.685 272.54,387.679 149.537,387.679 249.042,459.969 
			211.043,576.956 310.552,504.659 410.061,576.956 372.055,459.969 471.571,387.679 		"/>
		<polygon fill="#EACE30" points="614.807,218.753 587.886,249.677 550.156,233.635 571.25,268.79 544.327,299.729 584.291,290.526 
			605.371,325.688 608.979,284.84 648.944,275.651 611.199,259.594 		"/>
		<polygon fill="#EACE30" points="690.111,398.565 695.925,439.16 715.079,402.916 755.468,409.932 726.92,380.507 746.089,344.262 
			709.28,362.321 680.731,332.888 686.531,373.483 649.721,391.542 		"/>
		<polygon fill="#EACE30" points="726.312,558.779 758.595,533.497 717.625,534.976 703.564,496.469 692.303,535.88 651.32,537.354 
			685.343,560.241 674.068,599.669 706.351,574.404 740.375,597.292 		"/>
		<polygon fill="#EACE30" points="610.691,654.884 612.628,612.917 612.006,613.71 612.034,613.322 585.707,644.45 578.111,641.579 
			547.61,629.13 570.329,665.79 545.573,696.743 583.118,686.445 604.14,720.368 607.154,679.479 646.977,669.71 		"/>
	</g>
</g>
</svg>
