<?xml version="1.0" encoding="utf-8"?>
<!-- Generator: Adobe Illustrator 16.0.0, SVG Export Plug-In . SVG Version: 6.00 Build 0)  -->
<!DOCTYPE svg PUBLIC "-//W3C//DTD SVG 1.1//EN" "http://www.w3.org/Graphics/SVG/1.1/DTD/svg11.dtd">
<svg version="1.1" id="图形" xmlns="http://www.w3.org/2000/svg" xmlns:xlink="http://www.w3.org/1999/xlink" x="0px" y="0px"
	 width="1000.637px" height="1000.678px" viewBox="15.167 -16.333 1000.637 1000.678"
	 enable-background="new 15.167 -16.333 1000.637 1000.678" xml:space="preserve">
<path fill="#D9291D" d="M945.467,392.491c-7.909-37.643-20.643-73.537-37.539-106.96c-9.215-18.296-19.716-35.855-31.314-52.563
	c-5.298-7.625-10.767-15.08-16.519-22.289C809.083,146.253,740.381,96.49,661.31,68.686c-16.765-5.894-34.021-10.813-51.674-14.673
	c-30.35-6.623-61.834-10.142-94.171-10.142c-30.463,0-60.282,3.122-89.042,9.054c-19.205,3.945-37.938,9.176-56.158,15.543
	c-79.696,27.909-148.928,78.115-200.129,143.147c-19.356,24.541-36.102,51.21-49.933,79.572
	c-6.736,13.832-12.771,28.088-18.051,42.677c-6.868,18.968-12.412,38.551-16.631,58.626c-6.131,29.29-9.404,59.629-9.404,90.726
	c0,30.88,3.179,60.955,9.214,90.018c7.776,37.218,20.246,72.694,36.745,105.769c9.12,18.354,19.488,35.969,31.012,52.732
	c5.316,7.701,10.823,15.27,16.612,22.63c51.276,65.297,120.642,115.664,200.564,143.648c18.221,6.357,36.934,11.599,56.158,15.553
	c28.76,5.903,58.579,9.045,89.042,9.045c32.337,0,63.821-3.501,94.171-10.104c17.653-3.879,34.909-8.798,51.674-14.72
	c79.752-28.061,148.984-78.428,200.129-143.668c18.259-23.292,34.209-48.494,47.529-75.268c7.568-15.175,14.286-30.879,20.095-47
	c6.83-18.997,12.374-38.542,16.556-58.637c6.036-29.063,9.233-59.138,9.233-90.017C954.852,452.13,951.617,421.8,945.467,392.491z"
	/>
<path fill="#FFFFFF" d="M512.695,498.477c-82.704-12.364-139.732-89.43-127.358-172.125c9.839-65.826,61.522-117.509,127.34-127.338
	c-21.06,17.464-29.735,49.857-2.99,74.776c29.328,27.351,30.464,85.145-6.669,114.832
	C474.058,411.762,459.697,469.112,512.695,498.477z"/>
<polygon fill="#D9291D" points="462.648,348.168 470.898,301.433 436.746,334.404 483.755,327.79 441.835,305.511 "/>
<path fill="#D9291D" d="M512.846,496.093c-63.102-20.057-83.688-94.34-65.685-142.551l-4.135-1.41
	c-17.672,44.757-0.965,126.402,68.77,148.199L512.846,496.093z"/>
<path fill="#FFFFFF" d="M512.695,498.477C498.892,416,554.548,337.97,637.026,324.177c65.637-10.993,130.764,22.194,160.47,81.758
	c-23.121-14.626-56.631-12.885-72.07,20.255c-16.935,36.356-71.56,55.277-111.257,29.147
	C583.214,434.949,524.227,439.008,512.695,498.477z"/>
<polygon fill="#D9291D" points="640.167,404.449 687.167,397.845 645.256,375.547 666.07,418.214 674.319,371.46 "/>
<path fill="#D9291D" d="M514.994,497.891c-0.426-66.195,63.868-108.721,115.277-106.507l0.095-4.352
	c-48.041-2.99-120.528,38.116-119.724,111.17L514.994,497.891z"/>
<path fill="#FFFFFF" d="M512.695,498.477c-37.313,74.833-128.238,105.239-203.052,67.927
	c-59.574-29.696-92.742-94.822-81.768-160.469c10.104,25.43,38.221,43.698,70.198,25.969c35.079-19.451,90.386-2.668,107.15,41.825
	C418.279,508.392,468.381,539.801,512.695,498.477z"/>
<polygon fill="#D9291D" points="354.287,499.603 312.368,477.323 333.171,520 341.42,473.246 307.268,506.225 "/>
<path fill="#D9291D" d="M510.481,497.578c-38.58,53.821-115.58,50.434-155.872,18.41l-2.63,3.481
	c37.104,30.643,119.922,39.999,162.191-19.583L510.481,497.578z"/>
<path fill="#FFFFFF" d="M512.695,498.477c74.171-38.608,165.579-9.772,204.197,64.379c30.728,59.053,19.299,131.227-28.174,177.896
	c6.755-26.508-5.241-57.832-41.532-62.278c-39.81-4.882-74.682-50.954-62.099-96.81
	C594.888,545.931,572.807,491.079,512.695,498.477z"/>
<polygon fill="#D9291D" points="641.491,590.651 662.323,633.318 670.554,586.573 636.42,619.543 683.42,612.931 "/>
<path fill="#D9291D" d="M513.924,500.483c62.856-20.851,123.177,27.151,136.951,76.725l4.163-1.268
	c-12.015-46.593-73.49-102.836-142.723-79.487L513.924,500.483z"/>
<path fill="#FFFFFF" d="M512.695,498.477c59.62,58.599,60.472,154.462,1.854,214.092c-46.641,47.482-118.844,58.91-177.896,28.183
	c27.303-1.75,53.376-22.866,46.395-58.74c-7.653-39.365,25.392-86.791,72.884-88.976
	C492.96,591.332,538.295,553.367,512.695,498.477z"/>
<polygon fill="#D9291D" points="464.815,649.486 430.671,682.437 477.681,675.833 435.761,653.554 456.575,696.221 "/>
<path fill="#D9291D" d="M511.143,500.293c39.262,53.32,12.252,125.504-30.652,153.941l2.498,3.558
	c40.604-25.809,75.098-101.672,31.504-160.299L511.143,500.293z"/>
</svg>
