<?xml version="1.0" encoding="utf-8"?>
<!-- Generator: Adobe Illustrator 16.0.0, SVG Export Plug-In . SVG Version: 6.00 Build 0)  -->
<!DOCTYPE svg PUBLIC "-//W3C//DTD SVG 1.1//EN" "http://www.w3.org/Graphics/SVG/1.1/DTD/svg11.dtd">
<svg version="1.1" id="图形" xmlns="http://www.w3.org/2000/svg" xmlns:xlink="http://www.w3.org/1999/xlink" x="0px" y="0px"
	 width="1000.637px" height="1000.678px" viewBox="15.167 -16.333 1000.637 1000.678"
	 enable-background="new 15.167 -16.333 1000.637 1000.678" xml:space="preserve">
<g>
	<path fill="#FFFFFF" d="M945.47,393.26c-7.911-37.653-20.644-73.549-37.539-106.963c-9.213-18.297-19.717-35.856-31.315-52.563
		c-5.295-7.625-10.765-15.088-16.52-22.288c-51.008-64.428-119.71-114.189-198.787-142.003
		c-16.765-5.886-34.021-10.806-51.675-14.674c-30.348-6.614-61.832-10.133-94.159-10.133c-30.476,0-60.287,3.123-89.048,9.046
		c-19.209,3.954-37.944,9.176-56.157,15.542c-79.7,27.919-148.936,78.118-200.136,143.15
		c-19.357,24.541-36.099,51.219-49.918,79.573c-6.745,13.84-12.772,28.088-18.06,42.676c-6.859,18.978-12.418,38.563-16.633,58.627
		c-6.134,29.3-9.408,59.63-9.408,90.738c0,30.877,3.189,60.944,9.224,90.008c7.768,37.217,20.247,72.693,36.735,105.77
		c9.134,18.361,19.499,35.969,31.021,52.732c5.317,7.701,10.818,15.279,16.613,22.629c51.277,65.299,120.641,115.668,200.563,143.66
		c18.213,6.357,36.94,11.6,56.157,15.543c28.761,5.904,58.572,9.047,89.048,9.047c32.327,0,63.812-3.502,94.159-10.096
		c17.654-3.887,34.91-8.807,51.675-14.729c79.758-28.061,148.987-78.43,200.134-143.67c18.258-23.283,34.209-48.494,47.529-75.27
		c7.568-15.174,14.286-30.869,20.093-46.99c6.829-19.006,12.375-38.552,16.556-58.648c6.037-29.061,9.234-59.127,9.234-90.007
		C954.855,452.899,951.619,422.568,945.47,393.26z"/>
	<circle fill="#D71718" cx="515.486" cy="485.387" r="247.149"/>
</g>
</svg>
