<?xml version="1.0" encoding="utf-8"?>
<!-- Generator: Adobe Illustrator 16.0.0, SVG Export Plug-In . SVG Version: 6.00 Build 0)  -->
<!DOCTYPE svg PUBLIC "-//W3C//DTD SVG 1.1//EN" "http://www.w3.org/Graphics/SVG/1.1/DTD/svg11.dtd">
<svg version="1.1" id="图形" xmlns="http://www.w3.org/2000/svg" xmlns:xlink="http://www.w3.org/1999/xlink" x="0px" y="0px"
	 width="1000.637px" height="1000.678px" viewBox="15.167 -16.333 1000.637 1000.678"
	 enable-background="new 15.167 -16.333 1000.637 1000.678" xml:space="preserve">
<g id="flag">
	<g id="uk_flag">
		<path fill="#FFFFFF" d="M684.073,331.381l192.72-97.65c-5.298-7.625-10.777-15.089-16.529-22.289l-198.774,99.581V69.441
			c-16.771-5.884-34.026-10.804-51.676-14.673v338.484h335.851c-7.932-37.653-20.677-73.545-37.538-106.959l-88.974,45.088H684.073z
			"/>
		<path fill="#FFFFFF" d="M85.511,574.003c7.78,37.208,20.253,72.675,36.722,105.768l89.82-45.523h135.079l-193.869,98.256
			c5.328,7.7,10.808,15.269,16.62,22.61l200.56-100.508V898.78c18.225,6.357,36.934,11.599,56.156,15.534V574.003H85.511z"/>
		<path fill="#FFFFFF" d="M609.783,913.273c17.68-3.879,34.936-8.798,51.677-14.721V654.606l200.166,100.29
			c18.255-23.291,34.179-48.504,47.529-75.276l-92.849-46.99h112.919c6.812-19.006,12.382-38.551,16.56-58.645H609.783V913.273z"/>
		<path fill="#FFFFFF" d="M426.599,53.68c-19.223,3.954-37.932,9.176-56.156,15.543v243.445L170.307,212.369
			c-19.345,24.54-36.086,51.219-49.921,79.571l84.341,42.676H102.313c-6.842,18.978-12.412,38.561-16.62,58.626h340.906V53.68z"/>
		<path fill="#D9291D" d="M609.783,54.768c-30.334-6.613-61.818-10.132-94.149-10.132c-30.455,0-60.274,3.122-89.034,9.044v339.572
			H85.693c-6.146,29.289-9.415,59.638-9.415,90.744c0,30.87,3.209,60.926,9.233,90.007h341.088v340.329
			c28.76,5.903,58.579,9.044,89.034,9.044c32.331,0,63.815-3.5,94.149-10.094V574.003h336.002
			c6.055-29.081,9.233-59.137,9.233-90.007c0-31.105-3.239-61.436-9.385-90.744H609.783V54.768z"/>
		<path fill="#163165" d="M370.443,69.224c-79.71,27.917-148.944,78.115-200.136,143.146l200.136,100.299V69.224z"/>
		<path fill="#163165" d="M169.883,755.114c51.282,65.305,120.639,115.673,200.56,143.666V654.606L169.883,755.114z"/>
		<path fill="#163165" d="M661.459,898.552c79.77-28.06,149.004-78.427,200.166-143.656l-200.166-100.29V898.552z"/>
		<path fill="#163165" d="M860.263,211.442c-51.011-64.425-119.7-114.187-198.774-142.001v241.582L860.263,211.442z"/>
		<path fill="#D9291D" d="M909.155,679.619c7.568-15.175,14.258-30.869,20.07-46.99H816.306L909.155,679.619z"/>
		<path fill="#D9291D" d="M120.386,291.95c-6.721,13.84-12.775,28.097-18.043,42.686h102.384L120.386,291.95z"/>
		<path fill="#D9291D" d="M684.073,331.381h135.049l88.973-45.079c-9.202-18.306-19.707-35.855-31.302-52.572L684.073,331.381z"/>
		<path fill="#D9291D" d="M212.053,634.247l-89.79,45.523c9.112,18.354,19.496,35.949,31,52.732l193.869-98.266H212.053V634.247z"/>
	</g>
</g>
</svg>
